<?xml version="1.0" encoding="utf-8"?>
<!-- Generator: Adobe Illustrator 16.0.0, SVG Export Plug-In . SVG Version: 6.00 Build 0)  -->
<!DOCTYPE svg PUBLIC "-//W3C//DTD SVG 1.1//EN" "http://www.w3.org/Graphics/SVG/1.1/DTD/svg11.dtd">
<svg xmlns="http://www.w3.org/2000/svg" xmlns:xlink="http://www.w3.org/1999/xlink" version="1.1" id="fortuna-logo" x="0px" y="0px" width="260" height="260" viewBox="0 0 350 120" enable-background="new 0 0 350 120" xml:space="preserve">
<rect x="25" y="23.07" fill="#FEDC00" width="300" height="73.82"/>
<path fill="#FFFFFF" d="M108.82,59.93c0,6.51-5.28,11.79-11.79,11.79c-6.51,0-11.79-5.28-11.79-11.79s5.28-11.79,11.79-11.79  C103.54,48.14,108.82,53.42,108.82,59.93"/>
<path fill="#231F20" d="M47.69,75.5c0-1.64,0-29.83,0-31.23c1.26,0,23.32,0,24.82,0c0,1.26,0,6.41,0,7.73c-1.54,0-15.45,0-16.81,0  c0,0.75,0,3.47,0,4.21c1.08,0,11.99,0,13.02,0c0,1.31,0,6.84,0,7.77c-1.12,0-11.99,0-13.02,0c0,1.03,0,10.25,0,11.52  C54.58,75.5,48.82,75.5,47.69,75.5 M132.62,57.61c0-0.8,0-4.64,0-5.67c0.98,0,4.92,0,7.96,0c1.78,0,3.23,0.98,3.23,2.86  c0,1.78-1.55,2.81-3.23,2.81C137.53,57.61,133.46,57.61,132.62,57.61 M132.62,75.5c0-2.15,0-8.94,0-10.3c0.7,0,3.04,0,4.08,0  c0.7,1.22,5.29,9.36,5.85,10.3c1.17,0,8.62,0,9.88,0c-0.65-1.03-5.99-10.11-6.74-11.38c3.32-1.17,6.13-5.01,6.13-9.32  c0-6.37-4.82-10.53-10.49-10.53c-6.28,0-15.31,0-16.62,0c0,3,0,28.47,0,31.23C126.02,75.5,131.63,75.5,132.62,75.5z M168.96,75.5  c0.75,0,6.88,0,8.05,0c0-1.78,0-21.4,0-23.5c0.94,0,5.43,0,7.63,0c0-0.98,0-6.79,0-7.73c-2.15,0-21.26,0-23.32,0  c0,1.03,0,6.79,0,7.73c1.27,0,6.23,0,7.63,0C168.96,52.65,168.96,74.28,168.96,75.5 M196.38,44.27c0,1.64,0,12.36,0,19.34  c0,7.16,5.34,12.46,12.27,12.46c6.84,0,12.13-5.43,12.13-12.46c0-2.2,0-17.89,0-19.34c-0.94,0-6.93,0-7.87,0c0,1.59,0,16.57,0,19.9  c0,2.34-1.92,4.12-4.26,4.12c-2.57,0-4.26-2.06-4.26-4.12c0-3,0-18.17,0-19.9C203.45,44.27,197.32,44.27,196.38,44.27 M235.89,75.5  c0.98,0,6.56,0,7.87,0c0-1.59,0-12.45,0-14.66c1.31,1.17,15.5,13.91,17.04,15.26c0-2.25,0-29.78,0-31.84c-0.94,0-6.93,0-7.82,0  c0,1.83,0,12.45,0,14.66c-1.54-1.31-15.82-14.14-17.09-15.26C235.89,45.3,235.89,73.34,235.89,75.5 M286.48,55.88  c0.19,0.51,2.29,6.32,2.43,6.69c-0.33,0-4.31,0-4.73,0C284.33,62.15,286.29,56.44,286.48,55.88 M281.52,70.25c0.38,0,9.74,0,10.25,0  c0.19,0.51,1.69,4.59,1.92,5.24c0.61,0,7.82,0,8.62,0c-0.28-0.75-11.57-30.72-11.75-31.23c-0.56,0-7.63,0-8.15,0  c-0.19,0.61-11,30.57-11.24,31.23c0.56,0,8.15,0,8.52,0C279.83,75.08,281.38,70.68,281.52,70.25z M113.71,59.74  c0,9.12-7.39,16.51-16.52,16.51c-9.12,0-16.51-7.39-16.51-16.51c0-9.12,7.39-16.51,16.51-16.51  C106.32,43.23,113.71,50.62,113.71,59.74 M97.28,51.24c-4.74,0-8.58,3.84-8.58,8.58c0,4.74,3.84,8.58,8.58,8.58s8.58-3.84,8.58-8.58  C105.86,55.08,102.02,51.24,97.28,51.24z"/>
</svg>
