<?xml version="1.0" encoding="utf-8"?>
<!-- Generator: Adobe Illustrator 19.0.1, SVG Export Plug-In . SVG Version: 6.00 Build 0)  -->
<svg version="1.1" id="Vrstva_1" xmlns="http://www.w3.org/2000/svg" xmlns:xlink="http://www.w3.org/1999/xlink" x="0px" y="0px"
	 viewBox="0 0 550 128.5" style="enable-background:new 0 0 550 128.5;" xml:space="preserve">
<style type="text/css">
	.st0{fill:#F59A00;}
	.st1{fill:#FFFFFF;}
</style>
<polyline class="st0" points="1.6,11.9 34.7,118.3 114.3,1.3 46.2,42.1 1.6,11.9 "/>
<g>
	<polyline class="st1" points="126.2,105.5 146.2,105.5 157.2,33.2 173.7,33.2 176,17.9 121.5,17.9 119.1,33.2 137.2,33.2 
		126.2,105.5 	"/>
	<path class="st1" d="M372,72.3c-1.9,12.1-8.9,19.3-19,19.3c-5.4,0-8.4-1.5-8.4-1.5l5.4-36.1c0,0,3.3-1.3,8.2-1.3
		C367.5,52.7,374.2,58.2,372,72.3 M360.7,37.3c-10.4,0-21.4,1.8-28.1,4.6l-12.9,85.5H339l3.3-22.2c0,0,4.4,1.5,11.2,1.5
		c21.1,0,34.5-12.3,37.9-34.9C394.6,51,384.2,37.3,360.7,37.3z"/>
	<path class="st1" d="M248.7,72.3c-1.9,12.1-8.9,19.3-19,19.3c-5.4,0-8.4-1.5-8.4-1.5l5.4-36.1c0,0,3.3-1.3,8.2-1.3
		C244.1,52.7,250.9,58.2,248.7,72.3 M237.3,37.3c-10.4,0-21.4,1.8-28.1,4.6l-12.9,85.5h19.3l3.3-22.2c0,0,4.4,1.5,11.2,1.5
		c21.1,0,34.5-12.3,37.9-34.9C271.2,51,260.8,37.3,237.3,37.3z"/>
	<path class="st1" d="M516.3,25.8l-9.2,60.8c-1.7,11.2,3.2,20.1,17.8,20.1c4.7,0,11-0.8,13.1-1.5l2.4-16.1c-1.6,0.3-4.7,0.4-5.8,0.4
		c-6.1,0-8.3-2.8-7.5-7.5l4.3-28.7h14.4l2.2-14.4h-14.4l3.1-20.1L516.3,25.8"/>
	<path class="st1" d="M268.3,104.3c0,0,10.2,2.8,22.8,2.8c16.3,0,27.2-6.2,29-18.1c1.4-8.7-1.8-15.4-16.2-23.5
		c-7.2-4.1-10.9-5.6-10.4-8.9c0.5-3.6,6.3-4.1,9.6-4.1c8.3,0,17.8,2.1,17.8,2.1l2.5-15c0,0-8.5-2.3-21-2.3c-15.5,0-26.3,6.2-28,17.5
		c-1.3,8.7,1.9,16,15.9,23.7c7,3.9,11,5.9,10.4,9.4c-0.4,2.4-3.4,3.9-9.9,3.9c-9.9,0-19.3-2.4-19.3-2.4L268.3,104.3"/>
	<polyline class="st1" points="168.5,105.5 187.8,105.5 197.8,38.9 178.5,38.9 168.5,105.5 	"/>
	<polyline class="st1" points="179.4,33.2 198.7,33.2 201,17.9 181.7,17.9 179.4,33.2 	"/>
	<path class="st1" d="M510.4,37.6c-8.3-0.8-22.6-0.3-35.7,5.6l-9.4,62.3h19.3l7.8-51.4c0,0,5.6-2.3,15.7-1.1L510.4,37.6"/>
	<path class="st1" d="M443.8,72.5c-2.4,15.8-10.3,19.2-16.5,19.2c-7.8,0-13-6.3-10.9-19.8c2.4-15.8,10.3-19.2,16.5-19.2
		C440.8,52.7,445.8,59,443.8,72.5 M435,37.3c-22.1,0-34.5,11.8-38,35.1c-2.4,16.2,4.7,34.7,28.1,34.7c22.1,0,34.5-11.8,38-35.1
		C465.5,55.8,457.8,37.3,435,37.3z"/>
</g>
</svg>
